<svg xmlns="http://www.w3.org/2000/svg" xmlns:svg="http://www.w3.org/2000/svg" id="svg815" width="485.535" height="485.535" version="1.1" viewBox="0 0 485.535 485.535" xml:space="preserve"><metadata id="metadata821"/><defs id="defs819"><linearGradient id="linearGradient843" x1="0" x2="1" y1="0" y2="0" gradientTransform="matrix(230.50534,133.08232,133.08232,-230.50534,135.68799,192.72513)" gradientUnits="userSpaceOnUse" spreadMethod="pad"><stop style="stop-opacity:1;stop-color:#00acdf" id="stop837" offset="0"/><stop style="stop-opacity:1;stop-color:#4dbf5e" id="stop839" offset=".84"/><stop style="stop-opacity:1;stop-color:#4dbf5e" id="stop841" offset="1"/></linearGradient><clipPath id="clipPath853" clipPathUnits="userSpaceOnUse"><path id="path851" d="M 0,364.151 H 501.892 V 0 H 0 Z"/></clipPath></defs><g id="g823" transform="matrix(1.3333333,0,0,-1.3333333,0,485.53467)"><g id="g825" transform="translate(-68.875495,-77.172493)"><g id="g827"><g id="g833"><g id="g835"><path style="fill:url(#linearGradient843);stroke:none" id="path845" d="m 327.753,364.151 c -15.125,-0.117 -27.374,-12.294 -27.619,-27.387 v 0 c -2.4,-25.176 -23.626,-44.641 -48.717,-44.897 v 0 h -0.069 c -0.12,0 -0.242,-0.003 -0.359,-0.003 v 0 h -0.077 c -0.117,0 -0.237,0.003 -0.358,0.003 v 0 h -0.07 c -25.089,0.256 -46.316,19.721 -48.717,44.897 v 0 c -0.244,15.093 -12.493,27.27 -27.619,27.387 v 0 h -0.442 c -15.275,-0.12 -27.623,-12.541 -27.623,-27.844 v 0 c 0,-10.188 5.473,-19.098 13.637,-23.951 v 0 c 4.719,-8.293 13.94,-27.08 14.038,-52.672 v 0 c 0.005,-0.142 0.005,-0.289 0.005,-0.435 v 0 c 0,-0.147 0,-0.294 -0.005,-0.437 v 0 c -0.098,-25.591 -9.319,-44.378 -14.038,-52.671 v 0 c -8.164,-4.852 -13.637,-13.762 -13.637,-23.95 v 0 c 0,-15.378 12.467,-27.846 27.844,-27.846 v 0 c 15.227,0 27.595,12.222 27.84,27.387 v 0 c 2.401,25.146 23.579,44.599 48.635,44.893 v 0 c 0.052,0.005 0.1,0.005 0.152,0.005 v 0 c 0.289,0.003 0.578,0.003 0.863,-0.005 v 0 c 25.056,-0.294 46.235,-19.747 48.635,-44.893 v 0 c 0.246,-15.165 12.614,-27.387 27.84,-27.387 v 0 c 15.378,0 27.846,12.468 27.846,27.846 v 0 c 0,10.188 -5.475,19.098 -13.638,23.95 v 0 c -4.719,8.293 -13.939,27.08 -14.039,52.671 v 0 h 0.082 c -0.004,0.143 -0.004,0.29 -0.004,0.437 v 0 c 0,25.811 9.299,44.767 14.043,53.107 v 0 c 8.163,4.853 13.637,13.763 13.637,23.951 v 0 c 0,15.303 -12.348,27.724 -27.623,27.844 v 0 z M 230.828,258.673 c -0.006,0.188 -0.006,0.382 -0.006,0.576 v 0 c 0,0.193 0,0.388 0.006,0.576 v 0 c 0.303,10.702 8.942,19.318 19.651,19.593 v 0 c 0.171,0.005 0.341,0.005 0.518,0.005 v 0 c 0.143,0 0.286,0 0.428,-0.005 v 0 c 10.709,-0.275 19.347,-8.891 19.65,-19.593 v 0 c 0.005,-0.143 0.012,-0.347 0.013,-0.592 v 0 c 0.043,-7.887 -5.417,-13.629 -5.827,-14.049 v 0 c -5.5,-5.619 -12.361,-6.046 -13.859,-6.103 v 0 h -0.085 c -0.103,-0.007 -0.212,-0.007 -0.32,-0.007 v 0 c -0.177,0 -0.347,0 -0.518,0.007 v 0 h -0.086 c -10.669,0.318 -19.262,8.917 -19.565,19.592"/></g></g></g></g></g></svg>