<?xml version="1.0" encoding="UTF-8" standalone="no"?>
<!DOCTYPE svg PUBLIC "-//W3C//DTD SVG 20010904//EN" "http://www.w3.org/TR/2001/REC-SVG-20010904/DTD/svg10.dtd">
<svg version="1.0" xmlns="http://www.w3.org/2000/svg" width="700.000000pt" height="700.000000pt" viewBox="0 0 700.000000 700.000000" preserveAspectRatio="xMidYMid meet">
<metadata>
Created by potrace 1.14, written by Peter Selinger 2001-2017
</metadata>
<g transform="translate(0.000000,700.000000) scale(0.100000,-0.100000)" fill="#000000" stroke="none">
<path d="M6540 6930 c-8 -5 -35 -18 -60 -29 -87 -37 -575 -253 -630 -278 -30 -14 -64 -29 -75 -33 -18 -7 -675 -297 -770 -340 -22 -10 -98 -44 -170 -75 -71 -32 -152 -67 -180 -80 -27 -12 -84 -37 -125 -55 -41 -18 -100 -44 -130 -57 -30 -14 -165 -74 -300 -133 -225 -100 -281 -125 -410 -183 -25 -11 -49 -21 -55 -23 -5 -1 -80 -34 -165 -72 -85 -38 -234 -105 -330 -147 -96 -43 -203 -90 -238 -106 -35 -16 -65 -29 -67 -29 -2 0 -32 -13 -67 -29 -35 -16 -117 -52 -183 -81 -66 -29 -153 -68 -193 -87 -39 -18 -74 -33 -76 -33 -3 0 -42 -17 -88 -38 -46 -21 -149 -67 -230 -103 -82 -35 -148 -66 -148 -69 0 -3 428 -5 950 -4 770 0 950 -2 946 -13 -3 -7 -92 -138 -197 -290 -106 -153 -222 -321 -258 -373 -64 -92 -234 -339 -448 -648 -186 -269 -238 -345 -478 -692 -131 -190 -262 -379 -290 -420 -29 -41 -86 -124 -128 -185 -42 -60 -107 -155 -145 -210 -381 -551 -478 -690 -522 -755 -55 -80 -328 -475 -415 -600 -28 -41 -77 -111 -107 -155 -97 -142 -171 -248 -225 -324 -57 -82 -63 -105 -11 -45 18 20 38 42 43 48 6 6 138 155 294 331 156 176 316 356 355 399 39 44 87 98 107 120 20 23 96 109 170 191 73 83 138 155 143 161 6 6 38 42 71 80 57 65 206 233 284 319 20 22 67 76 106 120 38 44 72 82 75 85 3 3 41 46 85 95 44 50 82 92 85 95 3 3 37 41 75 85 39 43 77 86 85 95 8 9 44 49 80 90 76 86 106 119 231 260 52 58 126 141 164 185 39 44 93 105 120 135 28 30 84 93 125 140 41 47 81 92 90 101 8 9 42 47 75 84 33 38 65 73 70 79 6 6 42 47 80 91 39 44 75 84 81 90 5 5 44 48 85 95 40 47 79 90 84 96 19 21 137 153 154 172 47 55 139 158 156 176 11 12 52 57 90 101 78 89 120 137 150 169 11 12 47 53 80 90 33 37 69 78 80 90 11 12 47 53 80 90 33 38 69 78 80 90 11 12 47 53 80 91 33 37 65 73 70 79 14 14 249 279 330 370 33 38 69 78 80 90 11 13 40 45 65 72 25 28 70 79 100 114 30 35 69 77 85 94 17 18 43 47 59 66 16 19 49 58 75 86 25 28 69 77 98 110 28 32 62 71 75 85 31 34 106 118 139 156 15 17 50 57 79 89 29 33 65 73 79 89 39 44 194 218 206 231 5 6 35 39 65 74 30 34 66 74 79 89 13 14 42 46 64 71 22 25 52 57 66 73 24 27 20 35 -9 17z"/>
<path d="M459 73 c-13 -16 -12 -17 4 -4 16 13 21 21 13 21 -2 0 -10 -8 -17 -17z"/>
</g>
</svg>